<mxfile host="app.diagrams.net" agent="Mozilla/5.0 (Windows NT 10.0; Win64; x64) AppleWebKit/537.36 (KHTML, like Gecko) Chrome/128.0.0.0 Safari/537.36" version="24.7.7">
  <diagram name="Page-1" id="NcwPspTgmQS0WPdLaOn2">
    <mxGraphModel dx="2284" dy="1844" grid="1" gridSize="12" guides="1" tooltips="1" connect="1" arrows="1" fold="1" page="1" pageScale="1" pageWidth="850" pageHeight="1100" math="0" shadow="0">
      <root>
        <mxCell id="0" />
        <mxCell id="1" parent="0" />
        <mxCell id="S8tnt1r4IRFGRZPsPJ2N-1" value="User" style="rounded=0;whiteSpace=wrap;html=1;" vertex="1" parent="1">
          <mxGeometry x="156" y="360" width="120" height="60" as="geometry" />
        </mxCell>
        <mxCell id="S8tnt1r4IRFGRZPsPJ2N-2" value="id" style="ellipse;whiteSpace=wrap;html=1;" vertex="1" parent="1">
          <mxGeometry x="-54" y="208" width="120" height="80" as="geometry" />
        </mxCell>
        <mxCell id="S8tnt1r4IRFGRZPsPJ2N-3" value="" style="endArrow=none;html=1;rounded=0;entryX=0.633;entryY=0.975;entryDx=0;entryDy=0;entryPerimeter=0;exitX=0;exitY=0;exitDx=0;exitDy=0;" edge="1" parent="1" source="S8tnt1r4IRFGRZPsPJ2N-1" target="S8tnt1r4IRFGRZPsPJ2N-2">
          <mxGeometry width="50" height="50" relative="1" as="geometry">
            <mxPoint x="420" y="410" as="sourcePoint" />
            <mxPoint x="470" y="360" as="targetPoint" />
          </mxGeometry>
        </mxCell>
        <mxCell id="S8tnt1r4IRFGRZPsPJ2N-4" value="name" style="ellipse;whiteSpace=wrap;html=1;" vertex="1" parent="1">
          <mxGeometry x="132" y="192" width="120" height="80" as="geometry" />
        </mxCell>
        <mxCell id="S8tnt1r4IRFGRZPsPJ2N-5" value="" style="endArrow=none;html=1;rounded=0;entryX=0.6;entryY=1.05;entryDx=0;entryDy=0;entryPerimeter=0;exitX=0.5;exitY=0;exitDx=0;exitDy=0;" edge="1" parent="1" source="S8tnt1r4IRFGRZPsPJ2N-1" target="S8tnt1r4IRFGRZPsPJ2N-4">
          <mxGeometry width="50" height="50" relative="1" as="geometry">
            <mxPoint x="420" y="410" as="sourcePoint" />
            <mxPoint x="470" y="360" as="targetPoint" />
          </mxGeometry>
        </mxCell>
        <mxCell id="S8tnt1r4IRFGRZPsPJ2N-6" value="email (username)" style="ellipse;whiteSpace=wrap;html=1;" vertex="1" parent="1">
          <mxGeometry x="289" y="192" width="120" height="80" as="geometry" />
        </mxCell>
        <mxCell id="S8tnt1r4IRFGRZPsPJ2N-7" value="" style="endArrow=none;html=1;rounded=0;entryX=0.4;entryY=1;entryDx=0;entryDy=0;entryPerimeter=0;" edge="1" parent="1" source="S8tnt1r4IRFGRZPsPJ2N-1" target="S8tnt1r4IRFGRZPsPJ2N-6">
          <mxGeometry width="50" height="50" relative="1" as="geometry">
            <mxPoint x="420" y="410" as="sourcePoint" />
            <mxPoint x="470" y="360" as="targetPoint" />
          </mxGeometry>
        </mxCell>
        <mxCell id="S8tnt1r4IRFGRZPsPJ2N-8" value="password" style="ellipse;whiteSpace=wrap;html=1;" vertex="1" parent="1">
          <mxGeometry x="360" y="288" width="120" height="80" as="geometry" />
        </mxCell>
        <mxCell id="S8tnt1r4IRFGRZPsPJ2N-9" value="" style="endArrow=none;html=1;rounded=0;entryX=-0.017;entryY=0.625;entryDx=0;entryDy=0;entryPerimeter=0;exitX=1;exitY=0;exitDx=0;exitDy=0;" edge="1" parent="1" source="S8tnt1r4IRFGRZPsPJ2N-1" target="S8tnt1r4IRFGRZPsPJ2N-8">
          <mxGeometry width="50" height="50" relative="1" as="geometry">
            <mxPoint x="420" y="410" as="sourcePoint" />
            <mxPoint x="470" y="360" as="targetPoint" />
          </mxGeometry>
        </mxCell>
        <mxCell id="S8tnt1r4IRFGRZPsPJ2N-10" value="about" style="ellipse;whiteSpace=wrap;html=1;" vertex="1" parent="1">
          <mxGeometry x="-96" y="324" width="120" height="80" as="geometry" />
        </mxCell>
        <mxCell id="S8tnt1r4IRFGRZPsPJ2N-11" value="" style="endArrow=none;html=1;rounded=0;entryX=1;entryY=0.5;entryDx=0;entryDy=0;exitX=0;exitY=0.5;exitDx=0;exitDy=0;" edge="1" parent="1" source="S8tnt1r4IRFGRZPsPJ2N-1" target="S8tnt1r4IRFGRZPsPJ2N-10">
          <mxGeometry width="50" height="50" relative="1" as="geometry">
            <mxPoint x="420" y="410" as="sourcePoint" />
            <mxPoint x="470" y="360" as="targetPoint" />
          </mxGeometry>
        </mxCell>
        <mxCell id="S8tnt1r4IRFGRZPsPJ2N-12" value="img" style="ellipse;whiteSpace=wrap;html=1;" vertex="1" parent="1">
          <mxGeometry x="348" y="408" width="120" height="80" as="geometry" />
        </mxCell>
        <mxCell id="S8tnt1r4IRFGRZPsPJ2N-13" value="post" style="rounded=0;whiteSpace=wrap;html=1;" vertex="1" parent="1">
          <mxGeometry x="828" y="360" width="120" height="60" as="geometry" />
        </mxCell>
        <mxCell id="S8tnt1r4IRFGRZPsPJ2N-14" value="post id" style="ellipse;whiteSpace=wrap;html=1;" vertex="1" parent="1">
          <mxGeometry x="684" y="192" width="120" height="80" as="geometry" />
        </mxCell>
        <mxCell id="S8tnt1r4IRFGRZPsPJ2N-15" value="" style="endArrow=none;html=1;rounded=0;entryX=0.5;entryY=1;entryDx=0;entryDy=0;exitX=0.117;exitY=0;exitDx=0;exitDy=0;exitPerimeter=0;" edge="1" parent="1" source="S8tnt1r4IRFGRZPsPJ2N-13" target="S8tnt1r4IRFGRZPsPJ2N-14">
          <mxGeometry width="50" height="50" relative="1" as="geometry">
            <mxPoint x="420" y="410" as="sourcePoint" />
            <mxPoint x="470" y="360" as="targetPoint" />
          </mxGeometry>
        </mxCell>
        <mxCell id="S8tnt1r4IRFGRZPsPJ2N-16" value="title" style="ellipse;whiteSpace=wrap;html=1;" vertex="1" parent="1">
          <mxGeometry x="850" y="192" width="120" height="80" as="geometry" />
        </mxCell>
        <mxCell id="S8tnt1r4IRFGRZPsPJ2N-17" value="" style="endArrow=none;html=1;rounded=0;entryX=0.5;entryY=1;entryDx=0;entryDy=0;" edge="1" parent="1" source="S8tnt1r4IRFGRZPsPJ2N-13" target="S8tnt1r4IRFGRZPsPJ2N-16">
          <mxGeometry width="50" height="50" relative="1" as="geometry">
            <mxPoint x="420" y="410" as="sourcePoint" />
            <mxPoint x="470" y="360" as="targetPoint" />
          </mxGeometry>
        </mxCell>
        <mxCell id="S8tnt1r4IRFGRZPsPJ2N-18" value="content" style="ellipse;whiteSpace=wrap;html=1;" vertex="1" parent="1">
          <mxGeometry x="996" y="192" width="120" height="80" as="geometry" />
        </mxCell>
        <mxCell id="S8tnt1r4IRFGRZPsPJ2N-19" value="" style="endArrow=none;html=1;rounded=0;entryX=0.5;entryY=1;entryDx=0;entryDy=0;exitX=0.833;exitY=-0.05;exitDx=0;exitDy=0;exitPerimeter=0;" edge="1" parent="1" source="S8tnt1r4IRFGRZPsPJ2N-13" target="S8tnt1r4IRFGRZPsPJ2N-18">
          <mxGeometry width="50" height="50" relative="1" as="geometry">
            <mxPoint x="420" y="410" as="sourcePoint" />
            <mxPoint x="470" y="360" as="targetPoint" />
          </mxGeometry>
        </mxCell>
        <mxCell id="S8tnt1r4IRFGRZPsPJ2N-21" value="img" style="ellipse;whiteSpace=wrap;html=1;" vertex="1" parent="1">
          <mxGeometry x="1032" y="340" width="120" height="80" as="geometry" />
        </mxCell>
        <mxCell id="S8tnt1r4IRFGRZPsPJ2N-24" value="" style="endArrow=none;html=1;rounded=0;entryX=1;entryY=0.75;entryDx=0;entryDy=0;exitX=0;exitY=0.5;exitDx=0;exitDy=0;" edge="1" parent="1" source="S8tnt1r4IRFGRZPsPJ2N-12" target="S8tnt1r4IRFGRZPsPJ2N-1">
          <mxGeometry width="50" height="50" relative="1" as="geometry">
            <mxPoint x="420" y="410" as="sourcePoint" />
            <mxPoint x="470" y="360" as="targetPoint" />
          </mxGeometry>
        </mxCell>
        <mxCell id="S8tnt1r4IRFGRZPsPJ2N-25" value="" style="endArrow=none;html=1;rounded=0;entryX=0;entryY=0.5;entryDx=0;entryDy=0;exitX=1;exitY=0.5;exitDx=0;exitDy=0;" edge="1" parent="1" source="S8tnt1r4IRFGRZPsPJ2N-13" target="S8tnt1r4IRFGRZPsPJ2N-21">
          <mxGeometry width="50" height="50" relative="1" as="geometry">
            <mxPoint x="420" y="410" as="sourcePoint" />
            <mxPoint x="470" y="360" as="targetPoint" />
          </mxGeometry>
        </mxCell>
        <mxCell id="S8tnt1r4IRFGRZPsPJ2N-26" value="user_id (fk)" style="ellipse;whiteSpace=wrap;html=1;fillColor=#fff2cc;strokeColor=#d6b656;" vertex="1" parent="1">
          <mxGeometry x="612" y="312" width="120" height="80" as="geometry" />
        </mxCell>
        <mxCell id="S8tnt1r4IRFGRZPsPJ2N-27" value="" style="endArrow=none;html=1;rounded=0;entryX=0;entryY=0.5;entryDx=0;entryDy=0;exitX=1;exitY=0.5;exitDx=0;exitDy=0;" edge="1" parent="1" source="S8tnt1r4IRFGRZPsPJ2N-26" target="S8tnt1r4IRFGRZPsPJ2N-13">
          <mxGeometry width="50" height="50" relative="1" as="geometry">
            <mxPoint x="420" y="410" as="sourcePoint" />
            <mxPoint x="470" y="360" as="targetPoint" />
          </mxGeometry>
        </mxCell>
        <mxCell id="S8tnt1r4IRFGRZPsPJ2N-28" value="can have" style="rhombus;whiteSpace=wrap;html=1;" vertex="1" parent="1">
          <mxGeometry x="504" y="528" width="80" height="80" as="geometry" />
        </mxCell>
        <mxCell id="S8tnt1r4IRFGRZPsPJ2N-29" value="" style="endArrow=classic;html=1;rounded=0;exitX=0.5;exitY=1;exitDx=0;exitDy=0;entryX=0;entryY=0.5;entryDx=0;entryDy=0;" edge="1" parent="1" source="S8tnt1r4IRFGRZPsPJ2N-1" target="S8tnt1r4IRFGRZPsPJ2N-28">
          <mxGeometry width="50" height="50" relative="1" as="geometry">
            <mxPoint x="420" y="410" as="sourcePoint" />
            <mxPoint x="470" y="360" as="targetPoint" />
          </mxGeometry>
        </mxCell>
        <mxCell id="S8tnt1r4IRFGRZPsPJ2N-30" value="" style="endArrow=classic;html=1;rounded=0;entryX=0;entryY=1;entryDx=0;entryDy=0;exitX=1;exitY=0.5;exitDx=0;exitDy=0;" edge="1" parent="1" source="S8tnt1r4IRFGRZPsPJ2N-28" target="S8tnt1r4IRFGRZPsPJ2N-13">
          <mxGeometry width="50" height="50" relative="1" as="geometry">
            <mxPoint x="420" y="410" as="sourcePoint" />
            <mxPoint x="470" y="360" as="targetPoint" />
          </mxGeometry>
        </mxCell>
        <mxCell id="S8tnt1r4IRFGRZPsPJ2N-31" value="1" style="text;html=1;align=center;verticalAlign=middle;whiteSpace=wrap;rounded=0;" vertex="1" parent="1">
          <mxGeometry x="319" y="504" width="60" height="30" as="geometry" />
        </mxCell>
        <mxCell id="S8tnt1r4IRFGRZPsPJ2N-32" value="n" style="text;html=1;align=center;verticalAlign=middle;whiteSpace=wrap;rounded=0;" vertex="1" parent="1">
          <mxGeometry x="696" y="498" width="60" height="30" as="geometry" />
        </mxCell>
        <mxCell id="S8tnt1r4IRFGRZPsPJ2N-33" value="comment" style="rounded=0;whiteSpace=wrap;html=1;" vertex="1" parent="1">
          <mxGeometry x="816" y="672" width="120" height="60" as="geometry" />
        </mxCell>
        <mxCell id="S8tnt1r4IRFGRZPsPJ2N-34" value="comment_id" style="ellipse;whiteSpace=wrap;html=1;" vertex="1" parent="1">
          <mxGeometry x="612" y="756" width="120" height="80" as="geometry" />
        </mxCell>
        <mxCell id="S8tnt1r4IRFGRZPsPJ2N-35" value="" style="endArrow=none;html=1;rounded=0;entryX=0;entryY=0.5;entryDx=0;entryDy=0;" edge="1" parent="1" source="S8tnt1r4IRFGRZPsPJ2N-34" target="S8tnt1r4IRFGRZPsPJ2N-33">
          <mxGeometry width="50" height="50" relative="1" as="geometry">
            <mxPoint x="420" y="806" as="sourcePoint" />
            <mxPoint x="470" y="756" as="targetPoint" />
          </mxGeometry>
        </mxCell>
        <mxCell id="S8tnt1r4IRFGRZPsPJ2N-36" value="comment" style="ellipse;whiteSpace=wrap;html=1;" vertex="1" parent="1">
          <mxGeometry x="804" y="792" width="120" height="80" as="geometry" />
        </mxCell>
        <mxCell id="S8tnt1r4IRFGRZPsPJ2N-37" value="" style="endArrow=none;html=1;rounded=0;entryX=0.567;entryY=1.033;entryDx=0;entryDy=0;entryPerimeter=0;exitX=0.5;exitY=0;exitDx=0;exitDy=0;" edge="1" parent="1" source="S8tnt1r4IRFGRZPsPJ2N-36" target="S8tnt1r4IRFGRZPsPJ2N-33">
          <mxGeometry width="50" height="50" relative="1" as="geometry">
            <mxPoint x="420" y="806" as="sourcePoint" />
            <mxPoint x="470" y="756" as="targetPoint" />
          </mxGeometry>
        </mxCell>
        <mxCell id="S8tnt1r4IRFGRZPsPJ2N-38" value="post_id (fk)" style="ellipse;whiteSpace=wrap;html=1;fillColor=#dae8fc;strokeColor=#6c8ebf;" vertex="1" parent="1">
          <mxGeometry x="970" y="576" width="120" height="80" as="geometry" />
        </mxCell>
        <mxCell id="S8tnt1r4IRFGRZPsPJ2N-39" value="" style="endArrow=none;html=1;rounded=0;entryX=0;entryY=0.5;entryDx=0;entryDy=0;exitX=0.7;exitY=0.017;exitDx=0;exitDy=0;exitPerimeter=0;" edge="1" parent="1" source="S8tnt1r4IRFGRZPsPJ2N-33" target="S8tnt1r4IRFGRZPsPJ2N-38">
          <mxGeometry width="50" height="50" relative="1" as="geometry">
            <mxPoint x="420" y="710" as="sourcePoint" />
            <mxPoint x="470" y="660" as="targetPoint" />
          </mxGeometry>
        </mxCell>
        <mxCell id="S8tnt1r4IRFGRZPsPJ2N-40" value="user_id (fk)" style="ellipse;whiteSpace=wrap;html=1;fillColor=#fff2cc;strokeColor=#d6b656;" vertex="1" parent="1">
          <mxGeometry x="660" y="576" width="120" height="80" as="geometry" />
        </mxCell>
        <mxCell id="S8tnt1r4IRFGRZPsPJ2N-41" value="" style="endArrow=none;html=1;rounded=0;exitX=0;exitY=0;exitDx=0;exitDy=0;entryX=1;entryY=1;entryDx=0;entryDy=0;" edge="1" parent="1" source="S8tnt1r4IRFGRZPsPJ2N-33" target="S8tnt1r4IRFGRZPsPJ2N-40">
          <mxGeometry width="50" height="50" relative="1" as="geometry">
            <mxPoint x="420" y="614" as="sourcePoint" />
            <mxPoint x="470" y="564" as="targetPoint" />
          </mxGeometry>
        </mxCell>
        <mxCell id="S8tnt1r4IRFGRZPsPJ2N-42" value="can have" style="rhombus;whiteSpace=wrap;html=1;" vertex="1" parent="1">
          <mxGeometry x="196" y="648" width="80" height="80" as="geometry" />
        </mxCell>
        <mxCell id="S8tnt1r4IRFGRZPsPJ2N-43" value="" style="endArrow=classic;html=1;rounded=0;exitX=0.25;exitY=1;exitDx=0;exitDy=0;entryX=0.5;entryY=0;entryDx=0;entryDy=0;" edge="1" parent="1" source="S8tnt1r4IRFGRZPsPJ2N-1" target="S8tnt1r4IRFGRZPsPJ2N-42">
          <mxGeometry width="50" height="50" relative="1" as="geometry">
            <mxPoint x="156" y="460" as="sourcePoint" />
            <mxPoint x="444" y="608" as="targetPoint" />
          </mxGeometry>
        </mxCell>
        <mxCell id="S8tnt1r4IRFGRZPsPJ2N-44" value="" style="endArrow=classic;html=1;rounded=0;entryX=0;entryY=0.25;entryDx=0;entryDy=0;exitX=1;exitY=0.5;exitDx=0;exitDy=0;" edge="1" parent="1" source="S8tnt1r4IRFGRZPsPJ2N-42" target="S8tnt1r4IRFGRZPsPJ2N-33">
          <mxGeometry width="50" height="50" relative="1" as="geometry">
            <mxPoint x="288" y="684" as="sourcePoint" />
            <mxPoint x="528" y="592" as="targetPoint" />
          </mxGeometry>
        </mxCell>
        <mxCell id="S8tnt1r4IRFGRZPsPJ2N-45" value="1" style="text;html=1;align=center;verticalAlign=middle;whiteSpace=wrap;rounded=0;" vertex="1" parent="1">
          <mxGeometry x="132" y="534" width="60" height="30" as="geometry" />
        </mxCell>
        <mxCell id="S8tnt1r4IRFGRZPsPJ2N-46" value="n" style="text;html=1;align=center;verticalAlign=middle;whiteSpace=wrap;rounded=0;" vertex="1" parent="1">
          <mxGeometry x="444" y="642" width="60" height="30" as="geometry" />
        </mxCell>
        <mxCell id="S8tnt1r4IRFGRZPsPJ2N-47" value="can have" style="rhombus;whiteSpace=wrap;html=1;" vertex="1" parent="1">
          <mxGeometry x="868" y="484" width="80" height="80" as="geometry" />
        </mxCell>
        <mxCell id="S8tnt1r4IRFGRZPsPJ2N-48" value="" style="endArrow=none;html=1;rounded=0;entryX=0.75;entryY=1;entryDx=0;entryDy=0;exitX=0.5;exitY=0;exitDx=0;exitDy=0;" edge="1" parent="1" source="S8tnt1r4IRFGRZPsPJ2N-47" target="S8tnt1r4IRFGRZPsPJ2N-13">
          <mxGeometry width="50" height="50" relative="1" as="geometry">
            <mxPoint x="420" y="614" as="sourcePoint" />
            <mxPoint x="470" y="564" as="targetPoint" />
          </mxGeometry>
        </mxCell>
        <mxCell id="S8tnt1r4IRFGRZPsPJ2N-49" value="" style="endArrow=none;html=1;rounded=0;exitX=0.4;exitY=-0.017;exitDx=0;exitDy=0;exitPerimeter=0;entryX=0.5;entryY=1;entryDx=0;entryDy=0;" edge="1" parent="1" source="S8tnt1r4IRFGRZPsPJ2N-33" target="S8tnt1r4IRFGRZPsPJ2N-47">
          <mxGeometry width="50" height="50" relative="1" as="geometry">
            <mxPoint x="420" y="614" as="sourcePoint" />
            <mxPoint x="470" y="564" as="targetPoint" />
          </mxGeometry>
        </mxCell>
        <mxCell id="S8tnt1r4IRFGRZPsPJ2N-50" value="1" style="text;html=1;align=center;verticalAlign=middle;whiteSpace=wrap;rounded=0;" vertex="1" parent="1">
          <mxGeometry x="868" y="433" width="60" height="30" as="geometry" />
        </mxCell>
        <mxCell id="S8tnt1r4IRFGRZPsPJ2N-51" value="n" style="text;html=1;align=center;verticalAlign=middle;whiteSpace=wrap;rounded=0;" vertex="1" parent="1">
          <mxGeometry x="850" y="564" width="60" height="30" as="geometry" />
        </mxCell>
        <mxCell id="S8tnt1r4IRFGRZPsPJ2N-52" value="category" style="rounded=0;whiteSpace=wrap;html=1;" vertex="1" parent="1">
          <mxGeometry x="820" y="-72" width="120" height="60" as="geometry" />
        </mxCell>
        <mxCell id="S8tnt1r4IRFGRZPsPJ2N-53" value="category_id" style="ellipse;whiteSpace=wrap;html=1;" vertex="1" parent="1">
          <mxGeometry x="636" y="-240" width="120" height="80" as="geometry" />
        </mxCell>
        <mxCell id="S8tnt1r4IRFGRZPsPJ2N-54" value="" style="endArrow=none;html=1;rounded=0;entryX=0.808;entryY=0.938;entryDx=0;entryDy=0;entryPerimeter=0;exitX=0.333;exitY=0;exitDx=0;exitDy=0;exitPerimeter=0;" edge="1" parent="1" source="S8tnt1r4IRFGRZPsPJ2N-52" target="S8tnt1r4IRFGRZPsPJ2N-53">
          <mxGeometry width="50" height="50" relative="1" as="geometry">
            <mxPoint x="420" y="14" as="sourcePoint" />
            <mxPoint x="470" y="-36" as="targetPoint" />
          </mxGeometry>
        </mxCell>
        <mxCell id="S8tnt1r4IRFGRZPsPJ2N-55" value="titile" style="ellipse;whiteSpace=wrap;html=1;" vertex="1" parent="1">
          <mxGeometry x="850" y="-252" width="120" height="80" as="geometry" />
        </mxCell>
        <mxCell id="S8tnt1r4IRFGRZPsPJ2N-56" value="" style="endArrow=none;html=1;rounded=0;entryX=0.5;entryY=1;entryDx=0;entryDy=0;exitX=0.75;exitY=0;exitDx=0;exitDy=0;" edge="1" parent="1" source="S8tnt1r4IRFGRZPsPJ2N-52" target="S8tnt1r4IRFGRZPsPJ2N-55">
          <mxGeometry width="50" height="50" relative="1" as="geometry">
            <mxPoint x="420" y="14" as="sourcePoint" />
            <mxPoint x="470" y="-36" as="targetPoint" />
          </mxGeometry>
        </mxCell>
        <mxCell id="S8tnt1r4IRFGRZPsPJ2N-57" value="can have" style="rhombus;whiteSpace=wrap;html=1;" vertex="1" parent="1">
          <mxGeometry x="804" y="48" width="80" height="80" as="geometry" />
        </mxCell>
        <mxCell id="S8tnt1r4IRFGRZPsPJ2N-58" value="" style="endArrow=none;html=1;rounded=0;entryX=0.25;entryY=1;entryDx=0;entryDy=0;" edge="1" parent="1" source="S8tnt1r4IRFGRZPsPJ2N-57" target="S8tnt1r4IRFGRZPsPJ2N-52">
          <mxGeometry width="50" height="50" relative="1" as="geometry">
            <mxPoint x="420" y="314" as="sourcePoint" />
            <mxPoint x="470" y="264" as="targetPoint" />
          </mxGeometry>
        </mxCell>
        <mxCell id="S8tnt1r4IRFGRZPsPJ2N-59" value="" style="endArrow=none;html=1;rounded=0;entryX=0.5;entryY=1;entryDx=0;entryDy=0;exitX=0.167;exitY=0.033;exitDx=0;exitDy=0;exitPerimeter=0;" edge="1" parent="1" source="S8tnt1r4IRFGRZPsPJ2N-13" target="S8tnt1r4IRFGRZPsPJ2N-57">
          <mxGeometry width="50" height="50" relative="1" as="geometry">
            <mxPoint x="852" y="348" as="sourcePoint" />
            <mxPoint x="470" y="264" as="targetPoint" />
          </mxGeometry>
        </mxCell>
        <mxCell id="S8tnt1r4IRFGRZPsPJ2N-60" value="1" style="text;html=1;align=center;verticalAlign=middle;whiteSpace=wrap;rounded=0;" vertex="1" parent="1">
          <mxGeometry x="804" width="60" height="30" as="geometry" />
        </mxCell>
        <mxCell id="S8tnt1r4IRFGRZPsPJ2N-61" value="n" style="text;html=1;align=center;verticalAlign=middle;whiteSpace=wrap;rounded=0;" vertex="1" parent="1">
          <mxGeometry x="790" y="144" width="60" height="30" as="geometry" />
        </mxCell>
        <mxCell id="S8tnt1r4IRFGRZPsPJ2N-62" value="category_id (fk)" style="ellipse;whiteSpace=wrap;html=1;fillColor=#d5e8d4;strokeColor=#82b366;" vertex="1" parent="1">
          <mxGeometry x="516" y="174" width="120" height="80" as="geometry" />
        </mxCell>
        <mxCell id="S8tnt1r4IRFGRZPsPJ2N-63" value="" style="endArrow=none;html=1;rounded=0;entryX=1;entryY=1;entryDx=0;entryDy=0;exitX=0;exitY=0;exitDx=0;exitDy=0;" edge="1" parent="1" source="S8tnt1r4IRFGRZPsPJ2N-13" target="S8tnt1r4IRFGRZPsPJ2N-62">
          <mxGeometry width="50" height="50" relative="1" as="geometry">
            <mxPoint x="420" y="314" as="sourcePoint" />
            <mxPoint x="470" y="264" as="targetPoint" />
          </mxGeometry>
        </mxCell>
        <mxCell id="S8tnt1r4IRFGRZPsPJ2N-64" value="Role" style="rounded=0;whiteSpace=wrap;html=1;" vertex="1" parent="1">
          <mxGeometry x="-384" y="494" width="120" height="60" as="geometry" />
        </mxCell>
        <mxCell id="S8tnt1r4IRFGRZPsPJ2N-65" value="role_id" style="ellipse;whiteSpace=wrap;html=1;" vertex="1" parent="1">
          <mxGeometry x="-528" y="324" width="120" height="80" as="geometry" />
        </mxCell>
        <mxCell id="S8tnt1r4IRFGRZPsPJ2N-66" value="role_name" style="ellipse;whiteSpace=wrap;html=1;" vertex="1" parent="1">
          <mxGeometry x="-348" y="324" width="120" height="80" as="geometry" />
        </mxCell>
        <mxCell id="S8tnt1r4IRFGRZPsPJ2N-67" value="" style="endArrow=none;html=1;rounded=0;entryX=0.733;entryY=0.913;entryDx=0;entryDy=0;entryPerimeter=0;" edge="1" parent="1" target="S8tnt1r4IRFGRZPsPJ2N-65">
          <mxGeometry width="50" height="50" relative="1" as="geometry">
            <mxPoint x="-324" y="492" as="sourcePoint" />
            <mxPoint x="-202" y="360" as="targetPoint" />
          </mxGeometry>
        </mxCell>
        <mxCell id="S8tnt1r4IRFGRZPsPJ2N-69" value="" style="endArrow=none;html=1;rounded=0;exitX=0.75;exitY=0;exitDx=0;exitDy=0;entryX=0.5;entryY=1;entryDx=0;entryDy=0;" edge="1" parent="1" source="S8tnt1r4IRFGRZPsPJ2N-64" target="S8tnt1r4IRFGRZPsPJ2N-66">
          <mxGeometry width="50" height="50" relative="1" as="geometry">
            <mxPoint x="-252" y="410" as="sourcePoint" />
            <mxPoint x="-202" y="360" as="targetPoint" />
          </mxGeometry>
        </mxCell>
        <mxCell id="S8tnt1r4IRFGRZPsPJ2N-70" value="" style="rhombus;whiteSpace=wrap;html=1;" vertex="1" parent="1">
          <mxGeometry x="-108" y="496" width="80" height="80" as="geometry" />
        </mxCell>
        <mxCell id="S8tnt1r4IRFGRZPsPJ2N-71" value="" style="endArrow=none;html=1;rounded=0;entryX=0;entryY=0.5;entryDx=0;entryDy=0;exitX=1;exitY=0.5;exitDx=0;exitDy=0;" edge="1" parent="1" source="S8tnt1r4IRFGRZPsPJ2N-64" target="S8tnt1r4IRFGRZPsPJ2N-70">
          <mxGeometry width="50" height="50" relative="1" as="geometry">
            <mxPoint x="-252" y="410" as="sourcePoint" />
            <mxPoint x="-202" y="360" as="targetPoint" />
          </mxGeometry>
        </mxCell>
        <mxCell id="S8tnt1r4IRFGRZPsPJ2N-72" value="" style="endArrow=none;html=1;rounded=0;entryX=0;entryY=1;entryDx=0;entryDy=0;exitX=0.9;exitY=0.5;exitDx=0;exitDy=0;exitPerimeter=0;" edge="1" parent="1" source="S8tnt1r4IRFGRZPsPJ2N-70" target="S8tnt1r4IRFGRZPsPJ2N-1">
          <mxGeometry width="50" height="50" relative="1" as="geometry">
            <mxPoint x="-24" y="528" as="sourcePoint" />
            <mxPoint x="-202" y="360" as="targetPoint" />
          </mxGeometry>
        </mxCell>
        <mxCell id="S8tnt1r4IRFGRZPsPJ2N-73" value="n" style="text;html=1;align=center;verticalAlign=middle;whiteSpace=wrap;rounded=0;" vertex="1" parent="1">
          <mxGeometry x="-216" y="498" width="60" height="30" as="geometry" />
        </mxCell>
        <mxCell id="S8tnt1r4IRFGRZPsPJ2N-74" value="n" style="text;html=1;align=center;verticalAlign=middle;whiteSpace=wrap;rounded=0;" vertex="1" parent="1">
          <mxGeometry x="6" y="454" width="60" height="30" as="geometry" />
        </mxCell>
        <mxCell id="S8tnt1r4IRFGRZPsPJ2N-75" value="role_id" style="ellipse;whiteSpace=wrap;html=1;fillColor=#e1d5e7;strokeColor=#9673a6;" vertex="1" parent="1">
          <mxGeometry x="24" y="64" width="120" height="80" as="geometry" />
        </mxCell>
        <mxCell id="S8tnt1r4IRFGRZPsPJ2N-76" value="" style="endArrow=none;html=1;rounded=0;entryX=0.5;entryY=1;entryDx=0;entryDy=0;exitX=0.25;exitY=0;exitDx=0;exitDy=0;" edge="1" parent="1" source="S8tnt1r4IRFGRZPsPJ2N-1" target="S8tnt1r4IRFGRZPsPJ2N-75">
          <mxGeometry width="50" height="50" relative="1" as="geometry">
            <mxPoint x="-252" y="410" as="sourcePoint" />
            <mxPoint x="-202" y="360" as="targetPoint" />
          </mxGeometry>
        </mxCell>
      </root>
    </mxGraphModel>
  </diagram>
</mxfile>
